# xmcd
#
# Track frame offsets: 
#        150
#        24743
#        45214
#        65686
#        87230
#        110484
#        127981
#        152155
#        176525
#        202060
#        222888
#        241835
#        267544
#
# Disc length: 3893 seconds
#
# Revision: 0
# Processed by: cddbd v1.5.2PL0 Copyright (c) Steve Scherf et al.
# Submitted via: ExactAudioCopy v0.99pb4
#
DISCID=b50f330d
DTITLE=Darren Hodson and the Southern Companion - Short Stories and Tall
DTITLE=Tales
DYEAR=2011
DGENRE=Americana
TTITLE0=Too Much Was Never Enough
TTITLE1=The Leaving Kind
TTITLE2=Weekend Wednesday
TTITLE3=Love as You Go
TTITLE4=Waiting on the Corner
TTITLE5=I Break
TTITLE6=Sleepwalker
TTITLE7=Up
TTITLE8=These Tired Eyes
TTITLE9=Soulsister
TTITLE10=Maryanne
TTITLE11=Drive
TTITLE12=The Party's Ending
EXTD=
EXTT0=
EXTT1=
EXTT2=
EXTT3=
EXTT4=
EXTT5=
EXTT6=
EXTT7=
EXTT8=
EXTT9=
EXTT10=
EXTT11=
EXTT12=
PLAYORDER=
